<svg width="37" height="37" viewBox="0 0 37 37" fill="none" xmlns="http://www.w3.org/2000/svg"><path d="M35.296 10.148a13.15 13.15 0 01-3.789 1.039 6.611 6.611 0 002.9-3.65A13.204 13.204 0 0130.22 9.14a6.596 6.596 0 00-11.41 4.513c0 .517.058 1.02.17 1.503A18.725 18.725 0 015.384 8.262a6.564 6.564 0 00-.893 3.316 6.594 6.594 0 002.935 5.49 6.574 6.574 0 01-2.988-.825v.084a6.6 6.6 0 005.291 6.467 6.617 6.617 0 01-2.98.113 6.604 6.604 0 006.162 4.58 13.233 13.233 0 01-8.192 2.825 13.51 13.51 0 01-1.573-.092 18.67 18.67 0 0010.111 2.963c12.134 0 18.768-10.051 18.768-18.768 0-.285-.006-.57-.019-.853a13.391 13.391 0 003.291-3.415z" fill="#fff" fill-opacity=".7"/></svg>