<svg width="37" height="37" viewBox="0 0 37 37" fill="none" xmlns="http://www.w3.org/2000/svg"><g clip-path="url(#clip0)"><path d="M36.804 27.01a2.543 2.543 0 00-.126-.241c-.642-1.156-1.868-2.575-3.679-4.258l-.038-.038-.02-.02-.019-.019h-.02c-.821-.783-1.341-1.31-1.56-1.58-.398-.513-.487-1.033-.27-1.56.154-.398.733-1.239 1.734-2.524.527-.68.944-1.226 1.252-1.637 2.222-2.954 3.186-4.842 2.89-5.664l-.115-.192c-.077-.115-.276-.221-.597-.318-.321-.096-.732-.112-1.233-.048l-5.548.039c-.09-.032-.218-.03-.385.01l-.25.057-.097.049-.077.057a.855.855 0 00-.212.203 1.32 1.32 0 00-.192.337 31.448 31.448 0 01-2.062 4.334 41.006 41.006 0 01-1.31 2.071c-.398.584-.732 1.015-1.001 1.29-.27.277-.514.498-.733.665-.218.167-.385.238-.5.212a13.562 13.562 0 01-.328-.077 1.28 1.28 0 01-.433-.472 2.113 2.113 0 01-.222-.751 8.264 8.264 0 01-.067-.78c-.006-.219-.004-.527.01-.925.013-.399.019-.668.019-.81 0-.488.01-1.017.028-1.589.02-.571.035-1.024.049-1.358.013-.334.019-.687.019-1.06 0-.372-.023-.664-.068-.876a3.003 3.003 0 00-.201-.616 1.038 1.038 0 00-.395-.463 2.227 2.227 0 00-.646-.26c-.68-.154-1.547-.237-2.6-.25-2.39-.026-3.924.128-4.605.462-.27.141-.514.334-.732.578-.23.283-.263.437-.096.462.77.116 1.316.392 1.637.828l.116.232c.09.167.18.462.27.886.09.424.148.893.173 1.406.064.938.064 1.74 0 2.408a28.734 28.734 0 01-.183 1.56c-.058.373-.145.675-.26.906a3.82 3.82 0 01-.231.424.333.333 0 01-.097.096c-.166.064-.34.096-.52.096s-.398-.09-.655-.27a4.625 4.625 0 01-.8-.741c-.275-.315-.587-.755-.934-1.32a23.057 23.057 0 01-1.078-2.003l-.309-.559c-.192-.36-.455-.883-.79-1.57a30.258 30.258 0 01-.885-1.994 1.27 1.27 0 00-.463-.616l-.096-.058a1.319 1.319 0 00-.308-.164 2.044 2.044 0 00-.443-.125l-5.279.038c-.54 0-.905.122-1.098.366l-.077.116C.019 9.456 0 9.559 0 9.7c0 .142.039.315.116.52a63.577 63.577 0 002.514 5.24c.905 1.683 1.692 3.038 2.36 4.065a47.955 47.955 0 002.041 2.909c.694.912 1.153 1.496 1.378 1.753.225.257.401.45.53.578l.481.462c.308.308.761.677 1.358 1.107.598.431 1.259.855 1.985 1.272.725.417 1.57.758 2.533 1.021.963.264 1.9.37 2.813.318h2.215c.45-.039.79-.18 1.021-.424l.077-.096c.051-.077.1-.196.144-.356a1.96 1.96 0 00.068-.53 6.345 6.345 0 01.125-1.493c.096-.443.205-.777.327-1.002.123-.224.26-.414.414-.567.154-.154.264-.248.328-.28.064-.032.116-.054.154-.067.308-.103.671-.004 1.089.299.417.301.809.674 1.175 1.117.366.443.806.94 1.32 1.493.514.552.963.963 1.348 1.233l.385.23c.257.155.591.296 1.002.425.41.128.77.16 1.079.096l4.931-.077c.488 0 .868-.08 1.137-.24.27-.161.43-.338.482-.53.051-.193.054-.412.01-.656a2.415 2.415 0 00-.136-.51z" fill="#fff" fill-opacity=".7"/></g><defs><clipPath id="clip0"><path fill="#fff" d="M0 0h37v37H0z"/></clipPath></defs></svg>